<svg width="196" height="32" viewBox="0 0 196 32" fill="none" xmlns="http://www.w3.org/2000/svg">
<mask id="mask0" mask-type="alpha" maskUnits="userSpaceOnUse" x="0" y="0" width="33" height="32">
<path d="M32.5 16C32.5 7.16334 25.3367 0 16.5 0C7.66386 0 0.5 7.16334 0.5 16C0.5 24.8367 7.66386 32 16.5 32C25.3367 32 32.5 24.8367 32.5 16Z" fill="white"/>
</mask>
<g mask="url(#mask0)">
<path d="M32.5 16C32.5 7.16334 25.3367 0 16.5 0C7.66386 0 0.5 7.16334 0.5 16C0.5 24.8367 7.66386 32 16.5 32C25.3367 32 32.5 24.8367 32.5 16Z" fill="#DB4533"/>
<path fill-rule="evenodd" clip-rule="evenodd" d="M15.4786 7.11108C15.1941 7.11108 14.9632 7.34204 14.9632 7.62682V15.7147C14.9632 15.9841 14.7807 16.2356 14.5148 16.2802C14.1773 16.3371 13.882 16.0751 13.882 15.7475V7.62682C13.882 7.34204 13.6513 7.11108 13.3665 7.11108H13.3163C13.0315 7.11108 12.8008 7.34204 12.8008 7.62682V15.7147C12.8008 15.9841 12.6183 16.2356 12.3525 16.2802C12.0149 16.3371 11.7196 16.0751 11.7196 15.7475V7.62682C11.7196 7.34204 11.4886 7.11108 11.2039 7.11108H11.1539C10.8691 7.11108 10.6381 7.34204 10.6381 7.62682V15.765C10.6381 16.0344 10.4556 16.2858 10.1901 16.3307C9.8525 16.3873 9.55695 16.1254 9.55695 15.7978V7.62682C9.55695 7.34204 9.32626 7.11108 9.04173 7.11108C8.76285 7.11108 8.53446 7.33281 8.52626 7.61144C8.46038 9.84431 8.21815 18.8176 8.56291 19.4361C9.23218 20.6375 10.1755 20.7383 10.8294 22.0455C11.483 23.3531 11.6086 25.9427 11.4076 28.8339C11.0216 34.3806 9.53439 40.7834 10.1001 42.0081C10.8037 43.5312 11.9221 43.6301 12.2599 43.6235C12.5983 43.6301 13.7166 43.5312 14.42 42.0081C14.9857 40.7834 13.4985 34.3806 13.1125 28.8339C12.9115 25.9427 13.0371 23.3531 13.6908 22.0455C14.3446 20.7383 15.2882 20.6375 15.9572 19.4361C16.3022 18.8176 16.0597 9.84431 15.9941 7.61144C15.9857 7.33281 15.7575 7.11108 15.4786 7.11108Z" fill="white"/>
<path fill-rule="evenodd" clip-rule="evenodd" d="M23.9757 6.43924C23.9621 5.91839 23.3618 5.6677 23.0093 6.03527C22.2003 6.87859 21.0758 8.39887 20.3055 10.8186C19.3389 13.8556 19.0895 22.5495 19.7121 24.1269C20.2768 25.5575 20.8039 25.0123 21.2106 25.6664C21.8609 26.7122 21.6461 27.9541 21.4449 30.8453C21.0592 36.392 19.6142 40.7834 20.1799 42.0081C20.8833 43.5312 22.0017 43.6301 22.3398 43.6235C22.6779 43.6301 23.7962 43.5312 24.4996 42.0081C25.0653 40.7834 23.4138 27.4451 23.657 24.2615C23.7609 22.8999 24.0759 10.2737 23.9757 6.43924Z" fill="white"/>
</g>
<path d="M60.0664 16.7695H53.1992V24H50.2344V6.9375H61.0742V9.32812H53.1992V14.4023H60.0664V16.7695ZM78.2969 15.9141C78.2969 17.5859 78.0078 19.0547 77.4297 20.3203C76.8516 21.5781 76.0234 22.5469 74.9453 23.2266C73.875 23.8984 72.6406 24.2344 71.2422 24.2344C69.8594 24.2344 68.625 23.8984 67.5391 23.2266C66.4609 22.5469 65.625 21.582 65.0312 20.332C64.4453 19.082 64.1484 17.6406 64.1406 16.0078V15.0469C64.1406 13.3828 64.4336 11.9141 65.0195 10.6406C65.6133 9.36719 66.4453 8.39453 67.5156 7.72266C68.5938 7.04297 69.8281 6.70312 71.2188 6.70312C72.6094 6.70312 73.8398 7.03906 74.9102 7.71094C75.9883 8.375 76.8203 9.33594 77.4062 10.5938C77.9922 11.8438 78.2891 13.3008 78.2969 14.9648V15.9141ZM75.332 15.0234C75.332 13.1328 74.9727 11.6836 74.2539 10.6758C73.543 9.66797 72.5312 9.16406 71.2188 9.16406C69.9375 9.16406 68.9336 9.66797 68.207 10.6758C67.4883 11.6758 67.1211 13.0938 67.1055 14.9297V15.9141C67.1055 17.7891 67.4688 19.2383 68.1953 20.2617C68.9297 21.2852 69.9453 21.7969 71.2422 21.7969C72.5547 21.7969 73.5625 21.2969 74.2656 20.2969C74.9766 19.2969 75.332 17.8359 75.332 15.9141V15.0234ZM96.1172 15.9141C96.1172 17.5859 95.8281 19.0547 95.25 20.3203C94.6719 21.5781 93.8438 22.5469 92.7656 23.2266C91.6953 23.8984 90.4609 24.2344 89.0625 24.2344C87.6797 24.2344 86.4453 23.8984 85.3594 23.2266C84.2812 22.5469 83.4453 21.582 82.8516 20.332C82.2656 19.082 81.9688 17.6406 81.9609 16.0078V15.0469C81.9609 13.3828 82.2539 11.9141 82.8398 10.6406C83.4336 9.36719 84.2656 8.39453 85.3359 7.72266C86.4141 7.04297 87.6484 6.70312 89.0391 6.70312C90.4297 6.70312 91.6602 7.03906 92.7305 7.71094C93.8086 8.375 94.6406 9.33594 95.2266 10.5938C95.8125 11.8438 96.1094 13.3008 96.1172 14.9648V15.9141ZM93.1523 15.0234C93.1523 13.1328 92.793 11.6836 92.0742 10.6758C91.3633 9.66797 90.3516 9.16406 89.0391 9.16406C87.7578 9.16406 86.7539 9.66797 86.0273 10.6758C85.3086 11.6758 84.9414 13.0938 84.9258 14.9297V15.9141C84.9258 17.7891 85.2891 19.2383 86.0156 20.2617C86.75 21.2852 87.7656 21.7969 89.0625 21.7969C90.375 21.7969 91.3828 21.2969 92.0859 20.2969C92.7969 19.2969 93.1523 17.8359 93.1523 15.9141V15.0234ZM100.32 24V6.9375H105.359C106.867 6.9375 108.203 7.27344 109.367 7.94531C110.539 8.61719 111.445 9.57031 112.086 10.8047C112.727 12.0391 113.047 13.4531 113.047 15.0469V15.9023C113.047 17.5195 112.723 18.9414 112.074 20.168C111.434 21.3945 110.516 22.3398 109.32 23.0039C108.133 23.668 106.77 24 105.23 24H100.32ZM103.285 9.32812V21.6328H105.219C106.773 21.6328 107.965 21.1484 108.793 20.1797C109.629 19.2031 110.055 17.8047 110.07 15.9844V15.0352C110.07 13.1836 109.668 11.7695 108.863 10.793C108.059 9.81641 106.891 9.32812 105.359 9.32812H103.285ZM120.379 24H117.426V6.9375H120.379V24ZM135.246 16.3828H128.238V21.6328H136.43V24H125.273V6.9375H136.348V9.32812H128.238V14.0391H135.246V16.3828ZM149.012 19.6055C149.012 18.8555 148.746 18.2773 148.215 17.8711C147.691 17.4648 146.742 17.0547 145.367 16.6406C143.992 16.2266 142.898 15.7656 142.086 15.2578C140.531 14.2812 139.754 13.0078 139.754 11.4375C139.754 10.0625 140.312 8.92969 141.43 8.03906C142.555 7.14844 144.012 6.70312 145.801 6.70312C146.988 6.70312 148.047 6.92188 148.977 7.35938C149.906 7.79687 150.637 8.42188 151.168 9.23438C151.699 10.0391 151.965 10.9336 151.965 11.918H149.012C149.012 11.0273 148.73 10.332 148.168 9.83203C147.613 9.32422 146.816 9.07031 145.777 9.07031C144.809 9.07031 144.055 9.27734 143.516 9.69141C142.984 10.1055 142.719 10.6836 142.719 11.4258C142.719 12.0508 143.008 12.5742 143.586 12.9961C144.164 13.4102 145.117 13.8164 146.445 14.2148C147.773 14.6055 148.84 15.0547 149.645 15.5625C150.449 16.0625 151.039 16.6406 151.414 17.2969C151.789 17.9453 151.977 18.707 151.977 19.582C151.977 21.0039 151.43 22.1367 150.336 22.9805C149.25 23.8164 147.773 24.2344 145.906 24.2344C144.672 24.2344 143.535 24.0078 142.496 23.5547C141.465 23.0938 140.66 22.4609 140.082 21.6562C139.512 20.8516 139.227 19.9141 139.227 18.8438H142.191C142.191 19.8125 142.512 20.5625 143.152 21.0938C143.793 21.625 144.711 21.8906 145.906 21.8906C146.938 21.8906 147.711 21.6836 148.227 21.2695C148.75 20.8477 149.012 20.293 149.012 19.6055ZM176.133 21.7852C175.516 22.5898 174.66 23.1992 173.566 23.6133C172.473 24.0273 171.23 24.2344 169.84 24.2344C168.41 24.2344 167.145 23.9102 166.043 23.2617C164.941 22.6133 164.09 21.6875 163.488 20.4844C162.895 19.2734 162.586 17.8633 162.562 16.2539V14.918C162.562 12.3398 163.18 10.3281 164.414 8.88281C165.648 7.42969 167.371 6.70312 169.582 6.70312C171.48 6.70312 172.988 7.17188 174.105 8.10938C175.223 9.04688 175.895 10.3984 176.121 12.1641H173.215C172.887 10.1094 171.695 9.08203 169.641 9.08203C168.312 9.08203 167.301 9.5625 166.605 10.5234C165.918 11.4766 165.562 12.8789 165.539 14.7305V16.043C165.539 17.8867 165.926 19.3203 166.699 20.3438C167.48 21.3594 168.562 21.8672 169.945 21.8672C171.461 21.8672 172.539 21.5234 173.18 20.8359V17.4961H169.664V15.2461H176.133V21.7852ZM194.258 15.9141C194.258 17.5859 193.969 19.0547 193.391 20.3203C192.812 21.5781 191.984 22.5469 190.906 23.2266C189.836 23.8984 188.602 24.2344 187.203 24.2344C185.82 24.2344 184.586 23.8984 183.5 23.2266C182.422 22.5469 181.586 21.582 180.992 20.332C180.406 19.082 180.109 17.6406 180.102 16.0078V15.0469C180.102 13.3828 180.395 11.9141 180.98 10.6406C181.574 9.36719 182.406 8.39453 183.477 7.72266C184.555 7.04297 185.789 6.70312 187.18 6.70312C188.57 6.70312 189.801 7.03906 190.871 7.71094C191.949 8.375 192.781 9.33594 193.367 10.5938C193.953 11.8438 194.25 13.3008 194.258 14.9648V15.9141ZM191.293 15.0234C191.293 13.1328 190.934 11.6836 190.215 10.6758C189.504 9.66797 188.492 9.16406 187.18 9.16406C185.898 9.16406 184.895 9.66797 184.168 10.6758C183.449 11.6758 183.082 13.0938 183.066 14.9297V15.9141C183.066 17.7891 183.43 19.2383 184.156 20.2617C184.891 21.2852 185.906 21.7969 187.203 21.7969C188.516 21.7969 189.523 21.2969 190.227 20.2969C190.938 19.2969 191.293 17.8359 191.293 15.9141V15.0234Z" fill="#DB4533"/>
</svg>
