<svg width="32" height="32" viewBox="0 0 32 32" fill="none" xmlns="http://www.w3.org/2000/svg">
<mask id="mask0" mask-type="alpha" maskUnits="userSpaceOnUse" x="0" y="0" width="32" height="32">
<path d="M32 16C32 7.16335 24.8367 0 16 0C7.16386 0 0 7.16335 0 16C0 24.8367 7.16386 32 16 32C24.8367 32 32 24.8367 32 16Z" fill="white"/>
</mask>
<g mask="url(#mask0)">
<path d="M32 16C32 7.16335 24.8367 0 16 0C7.16386 0 0 7.16335 0 16C0 24.8367 7.16386 32 16 32C24.8367 32 32 24.8367 32 16Z" fill="white"/>
<path fill-rule="evenodd" clip-rule="evenodd" d="M14.9786 7.11102C14.6941 7.11102 14.4632 7.34197 14.4632 7.62675V15.7147C14.4632 15.9841 14.2807 16.2355 14.0148 16.2801C13.6773 16.337 13.382 16.0751 13.382 15.7475V7.62675C13.382 7.34197 13.1513 7.11102 12.8665 7.11102H12.8163C12.5315 7.11102 12.3008 7.34197 12.3008 7.62675V15.7147C12.3008 15.9841 12.1183 16.2355 11.8525 16.2801C11.5149 16.337 11.2196 16.0751 11.2196 15.7475V7.62675C11.2196 7.34197 10.9886 7.11102 10.7039 7.11102H10.6539C10.3691 7.11102 10.1381 7.34197 10.1381 7.62675V15.7649C10.1381 16.0343 9.95564 16.2858 9.69008 16.3306C9.3525 16.3873 9.05695 16.1253 9.05695 15.7977V7.62675C9.05695 7.34197 8.82626 7.11102 8.54173 7.11102C8.26285 7.11102 8.03446 7.33275 8.02626 7.61138C7.96038 9.84425 7.71815 18.8175 8.06291 19.436C8.73218 20.6375 9.67547 20.7382 10.3294 22.0455C10.983 23.353 11.1086 25.9427 10.9076 28.8338C10.5216 34.3805 9.03439 40.7833 9.60011 42.008C10.3037 43.5311 11.4221 43.6301 11.7599 43.6235C12.0983 43.6301 13.2166 43.5311 13.92 42.008C14.4857 40.7833 12.9985 34.3805 12.6125 28.8338C12.4115 25.9427 12.5371 23.353 13.1908 22.0455C13.8446 20.7382 14.7882 20.6375 15.4572 19.436C15.8022 18.8175 15.5597 9.84425 15.4941 7.61138C15.4857 7.33275 15.2575 7.11102 14.9786 7.11102Z" fill="#DB4533"/>
<path fill-rule="evenodd" clip-rule="evenodd" d="M23.4757 6.43924C23.4621 5.91839 22.8618 5.6677 22.5093 6.03527C21.7003 6.87859 20.5758 8.39887 19.8055 10.8186C18.8389 13.8556 18.5895 22.5495 19.2121 24.1269C19.7768 25.5575 20.3039 25.0123 20.7106 25.6664C21.3609 26.7122 21.1461 27.9541 20.9449 30.8453C20.5592 36.392 19.1142 40.7834 19.6799 42.0081C20.3833 43.5312 21.5017 43.6301 21.8398 43.6235C22.1779 43.6301 23.2962 43.5312 23.9996 42.0081C24.5653 40.7834 22.9138 27.4451 23.157 24.2615C23.2609 22.8999 23.5759 10.2737 23.4757 6.43924Z" fill="#DB4533"/>
</g>
</svg>
