<svg width="92" height="16" viewBox="0 0 92 16" fill="none" xmlns="http://www.w3.org/2000/svg">
<path d="M8.5 12.8589L13.753 16L12.359 10.08L17 6.09684L10.8885 5.57474L8.5 0L6.1115 5.57474L0 6.09684L4.6325 10.08L3.247 16L8.5 12.8589Z" fill="#F19E38"/>
<path d="M26.5 12.8589L31.753 16L30.359 10.08L35 6.09684L28.8885 5.57474L26.5 0L24.1115 5.57474L18 6.09684L22.6325 10.08L21.247 16L26.5 12.8589Z" fill="#F3F3F3"/>
<path d="M45.5 12.8589L50.753 16L49.359 10.08L54 6.09684L47.8885 5.57474L45.5 0L43.1115 5.57474L37 6.09684L41.6325 10.08L40.247 16L45.5 12.8589Z" fill="#F3F3F3"/>
<path d="M64.5 12.8589L69.753 16L68.359 10.08L73 6.09684L66.8885 5.57474L64.5 0L62.1115 5.57474L56 6.09684L60.6325 10.08L59.247 16L64.5 12.8589Z" fill="#F3F3F3"/>
<path d="M83.5 12.8589L88.753 16L87.359 10.08L92 6.09684L85.8885 5.57474L83.5 0L81.1115 5.57474L75 6.09684L79.6325 10.08L78.247 16L83.5 12.8589Z" fill="#F3F3F3"/>
</svg>
