<svg width="91" height="16" viewBox="0 0 91 16" fill="none" xmlns="http://www.w3.org/2000/svg">
<path d="M8.5 12.8589L13.753 16L12.359 10.08L17 6.09684L10.8885 5.57474L8.5 0L6.1115 5.57474L0 6.09684L4.6325 10.08L3.247 16L8.5 12.8589Z" fill="#F19E38"/>
<path d="M26.5 12.8589L31.753 16L30.359 10.08L35 6.09684L28.8885 5.57474L26.5 0L24.1115 5.57474L18 6.09684L22.6325 10.08L21.247 16L26.5 12.8589Z" fill="#F19E38"/>
<path d="M44.5 12.8589L49.753 16L48.359 10.08L53 6.09684L46.8885 5.57474L44.5 0L42.1115 5.57474L36 6.09684L40.6325 10.08L39.247 16L44.5 12.8589Z" fill="#F3F3F3"/>
<path d="M63.5 12.8589L68.753 16L67.359 10.08L72 6.09684L65.8885 5.57474L63.5 0L61.1115 5.57474L55 6.09684L59.6325 10.08L58.247 16L63.5 12.8589Z" fill="#F3F3F3"/>
<path d="M82.5 12.8589L87.753 16L86.359 10.08L91 6.09684L84.8885 5.57474L82.5 0L80.1115 5.57474L74 6.09684L78.6325 10.08L77.247 16L82.5 12.8589Z" fill="#F3F3F3"/>
</svg>
