<svg width="90" height="16" viewBox="0 0 90 16" fill="none" xmlns="http://www.w3.org/2000/svg">
<path d="M8.5 12.8589L13.753 16L12.359 10.08L17 6.09684L10.8885 5.57474L8.5 0L6.1115 5.57474L0 6.09684L4.6325 10.08L3.247 16L8.5 12.8589Z" fill="#F19E38"/>
<path d="M26.5 12.8589L31.753 16L30.359 10.08L35 6.09684L28.8885 5.57474L26.5 0L24.1115 5.57474L18 6.09684L22.6325 10.08L21.247 16L26.5 12.8589Z" fill="#F19E38"/>
<path d="M44.5 12.8589L49.753 16L48.359 10.08L53 6.09684L46.8885 5.57474L44.5 0L42.1115 5.57474L36 6.09684L40.6325 10.08L39.247 16L44.5 12.8589Z" fill="#F19E38"/>
<path d="M62.5 12.8589L67.753 16L66.359 10.08L71 6.09684L64.8885 5.57474L62.5 0L60.1115 5.57474L54 6.09684L58.6325 10.08L57.247 16L62.5 12.8589Z" fill="#F3F3F3"/>
<path d="M81.5 12.8589L86.753 16L85.359 10.08L90 6.09684L83.8885 5.57474L81.5 0L79.1115 5.57474L73 6.09684L77.6325 10.08L76.247 16L81.5 12.8589Z" fill="#F3F3F3"/>
</svg>
