<svg width="89" height="16" viewBox="0 0 89 16" fill="none" xmlns="http://www.w3.org/2000/svg">
<path d="M8.5 12.8589L13.753 16L12.359 10.08L17 6.09684L10.8885 5.57474L8.5 0L6.1115 5.57474L0 6.09684L4.6325 10.08L3.247 16L8.5 12.8589Z" fill="#F19E38"/>
<path d="M26.5 12.8589L31.753 16L30.359 10.08L35 6.09684L28.8885 5.57474L26.5 0L24.1115 5.57474L18 6.09684L22.6325 10.08L21.247 16L26.5 12.8589Z" fill="#F19E38"/>
<path d="M44.5 12.8589L49.753 16L48.359 10.08L53 6.09684L46.8885 5.57474L44.5 0L42.1115 5.57474L36 6.09684L40.6325 10.08L39.247 16L44.5 12.8589Z" fill="#F19E38"/>
<mask id="mask0" mask-type="alpha" maskUnits="userSpaceOnUse" x="54" y="0" width="17" height="16">
<path d="M62.5 12.8589L67.753 16L66.359 10.08L71 6.09684L64.8885 5.57474L62.5 0L60.1115 5.57474L54 6.09684L58.6325 10.08L57.247 16L62.5 12.8589Z" fill="#F3F3F3"/>
</mask>
<g mask="url(#mask0)">
<rect x="54" width="8.5" height="16" fill="#F19E38"/>
<rect x="62.5" width="8.5" height="16" fill="#F3F3F3"/>
<rect x="54" width="8.5" height="16" fill="#F19E38"/>
</g>
<path d="M80.5 12.8589L85.753 16L84.359 10.08L89 6.09684L82.8885 5.57474L80.5 0L78.1115 5.57474L72 6.09684L76.6325 10.08L75.247 16L80.5 12.8589Z" fill="#F3F3F3"/>
</svg>
